<?xml version="1.0" encoding="utf-8"?>
<!-- Generator: Adobe Illustrator 23.0.3, SVG Export Plug-In . SVG Version: 6.00 Build 0)  -->
<svg version="1.1" id="Capa_1" focusable="false" xmlns="http://www.w3.org/2000/svg" xmlns:xlink="http://www.w3.org/1999/xlink"
	 x="0px" y="0px" viewBox="0 0 448.2 448.6" style="enable-background:new 0 0 448.2 448.6;" xml:space="preserve">
<style type="text/css">
	.st0{fill:#DB4F42;}
	.st1{fill:none;stroke:#DB4F42;stroke-width:10;stroke-miterlimit:10;}
</style>
<path class="st0" d="M121.1,338.8c0,14.3,11.5,25.8,25.8,25.8l0,0h154.7c14.3,0,25.8-11.5,25.8-25.8l0,0V158.2H121.1V338.8z
	 M267.1,201.1c0-4.8,3.9-8.6,8.6-8.6c4.8,0,8.6,3.9,8.6,8.6v120.4c0,4.8-3.9,8.6-8.6,8.6c-4.8,0-8.6-3.9-8.6-8.6V201.1z
	 M215.6,201.1c0-4.8,3.9-8.6,8.6-8.6s8.6,3.9,8.6,8.6v120.4c0,4.8-3.9,8.6-8.6,8.6s-8.6-3.9-8.6-8.6V201.1z M164,201.1
	c0-4.8,3.9-8.6,8.6-8.6s8.6,3.9,8.6,8.6v120.4c0,4.8-3.9,8.6-8.6,8.6s-8.6-3.9-8.6-8.6V201.1z M336,106.6h-64.5l-5.1-10
	c-2.1-4.4-6.7-7.1-11.5-7.1h-61.5c-4.9,0-9.4,2.8-11.5,7.1l-5.1,10h-64.5c-4.8,0-8.6,3.9-8.6,8.6v17.3c0,4.8,3.9,8.6,8.6,8.6h223.5
	c4.8,0,8.6-3.9,8.6-8.6v-17.3C344.6,110.5,340.7,106.6,336,106.6z"/>
<circle class="st1" cx="224.2" cy="224.3" r="218"/>
</svg>
