<?xml version="1.0" encoding="utf-8"?>
<!-- Generator: Adobe Illustrator 23.0.3, SVG Export Plug-In . SVG Version: 6.00 Build 0)  -->
<svg version="1.1" xmlns="http://www.w3.org/2000/svg" xmlns:xlink="http://www.w3.org/1999/xlink" x="0px" y="0px"
	 viewBox="0 0 512 512" style="enable-background:new 0 0 512 512;" xml:space="preserve">
<style type="text/css">
	.st0{fill:#E8E6E6;}
</style>
<g id="Capa_2">
</g>
<g id="Capa_1" focusable="false">
	<path class="st0" d="M457,256c0,111-90,201-201,201S55,367,55,256S145,55,256,55S457,145,457,256z M368,248c0-8.8-7.2-16-16-16h-72
		v-72c0-8.8-7.2-16-16-16h-16c-8.8,0-16,7.2-16,16v72h-72c-8.8,0-16,7.2-16,16v16c0,8.8,7.2,16,16,16h72v72c0,8.8,7.2,16,16,16h16
		c8.8,0,16-7.2,16-16v-72h72c8.8,0,16-7.2,16-16V248z"/>
</g>
</svg>
